<?xml version="1.0" standalone="no"?>
<!DOCTYPE svg PUBLIC "-//W3C//DTD SVG 20010904//EN"
 "http://www.w3.org/TR/2001/REC-SVG-20010904/DTD/svg10.dtd">
<svg version="1.0" xmlns="http://www.w3.org/2000/svg"
 width="260.000000pt" height="260.000000pt" viewBox="0 0 260.000000 260.000000"
 preserveAspectRatio="xMidYMid meet">
<metadata>
Created by potrace 1.11, written by Peter Selinger 2001-2013
</metadata>
<g transform="translate(0.000000,260.000000) scale(0.100000,-0.100000)"
fill="#000000" stroke="none">
<path d="M1184 2588 c-4 -5 -3 -40 0 -77 7 -65 6 -69 -29 -121 l-36 -55 -53 3
c-39 3 -56 0 -66 -13 -12 -14 -10 -15 13 -11 33 6 45 -10 13 -18 -12 -3 -51
-28 -86 -56 -35 -28 -74 -53 -87 -56 -37 -10 -86 4 -105 29 l-18 22 0 -22 c0
-33 20 -72 42 -78 27 -9 22 -19 -14 -33 -44 -16 -123 -76 -145 -108 -19 -29
-54 -126 -48 -133 3 -2 26 14 52 35 l47 39 -32 -47 c-18 -26 -41 -52 -52 -58
-33 -18 -80 -12 -101 13 -10 12 -28 33 -40 47 -22 26 -22 22 1 -23 26 -53 108
-84 173 -66 l28 8 -30 -35 c-17 -19 -37 -47 -45 -62 -18 -36 -27 -106 -17
-133 7 -20 9 -18 24 19 9 23 18 42 20 42 1 0 0 -36 -4 -80 -8 -114 -43 -144
-119 -105 -26 13 -30 13 -30 1 0 -8 14 -26 30 -40 l31 -25 -55 0 c-74 1 -114
-9 -126 -32 -10 -17 -8 -19 22 -14 41 6 144 -35 140 -55 -2 -7 -5 -34 -6 -59
-2 -30 -19 -77 -50 -136 -25 -49 -52 -120 -60 -156 -7 -36 -19 -76 -25 -88
-10 -17 -9 -28 3 -53 11 -20 13 -35 6 -42 -13 -17 -3 -76 17 -98 12 -14 26
-18 45 -14 23 4 29 1 33 -17 7 -29 14 -193 14 -342 0 -168 1 -179 10 -188 22
-22 204 -30 242 -11 29 14 30 24 15 154 l-6 55 60 54 c67 59 70 56 45 -39 -8
-30 -15 -58 -15 -62 0 -6 17 -13 141 -57 l76 -27 11 31 c6 16 14 47 17 67 4
20 14 43 23 51 27 22 92 57 106 57 8 0 29 -34 47 -75 18 -41 36 -75 40 -75 5
0 24 14 42 30 42 36 46 37 40 6 -5 -26 6 -32 64 -35 18 -1 43 -5 55 -9 13 -5
45 -10 71 -11 49 -3 49 -3 44 26 -3 15 -9 53 -13 83 -3 30 -8 63 -10 73 -2 11
8 23 27 33 17 8 32 14 33 12 2 -2 28 -51 59 -110 57 -108 61 -129 38 -192 -10
-25 -4 -46 12 -46 7 0 25 -7 41 -15 16 -9 35 -14 42 -11 7 3 14 1 16 -4 4 -12
97 -40 102 -32 2 4 10 34 17 67 14 65 20 71 91 109 35 18 49 21 56 13 11 -15
37 -74 46 -104 14 -44 30 -45 77 -5 24 21 63 53 87 71 23 18 42 38 42 44 0 16
-68 146 -96 183 -12 17 -26 44 -30 60 -4 16 -25 62 -46 102 -42 76 -118 319
-118 376 0 38 -17 63 -45 68 -20 3 -36 29 -48 80 -6 21 -3 28 13 33 31 10 24
39 -23 88 -116 120 -284 140 -391 46 -27 -24 -51 -57 -62 -84 l-17 -45 -39 59
c-43 66 -103 116 -161 133 -78 24 -166 197 -168 333 -1 72 17 119 48 123 17 3
24 -5 37 -40 9 -24 20 -65 26 -92 20 -94 60 -135 133 -138 41 -1 69 13 86 46
8 14 27 30 42 35 33 12 39 44 12 73 -15 17 -15 18 6 18 34 0 61 18 61 41 0 16
4 19 18 14 9 -3 29 -9 44 -12 31 -6 47 14 75 97 10 30 24 60 32 66 17 14 17
58 0 91 -12 22 -18 24 -55 19 -31 -4 -45 -1 -55 10 -27 33 -67 45 -119 36 -65
-12 -74 -5 -66 52 10 62 1 84 -37 94 -34 9 -48 38 -24 48 8 3 49 -9 91 -26 81
-34 140 -83 168 -140 l18 -35 0 30 c0 17 -11 49 -25 73 -13 23 -20 42 -16 42
16 0 89 -71 104 -102 11 -21 17 -27 17 -15 0 26 -17 57 -54 95 -19 20 -24 31
-13 27 9 -4 17 -11 17 -15 0 -4 7 -11 15 -14 26 -10 -32 59 -74 89 -44 30
-147 74 -173 75 -15 0 -16 4 -8 26 11 28 13 126 4 162 -4 13 -14 22 -25 22
-14 0 -22 -12 -32 -47 -7 -28 -28 -64 -52 -91 l-41 -45 0 74 c-1 74 -23 140
-56 166 -20 16 -57 22 -64 11z m-299 -1703 c-1 -24 -15 -49 -15 -27 0 6 -10
20 -22 32 l-22 20 30 0 c25 0 29 -4 29 -25z m380 -84 c3 -11 15 -23 25 -26 20
-6 26 -19 34 -70 3 -16 10 -54 16 -84 5 -30 8 -56 5 -59 -6 -7 -34 61 -29 70
3 4 -6 24 -19 45 -13 21 -36 62 -51 91 -25 49 -25 52 -7 52 11 0 22 -9 26 -19z
m328 -6 c31 -22 26 -79 -8 -115 -16 -17 -32 -27 -36 -23 -5 5 -11 35 -14 68
-4 33 -9 64 -12 68 -8 13 16 25 36 20 9 -2 24 -10 34 -18z m-898 -89 c19 -28
21 -99 6 -139 -13 -33 -33 -31 -38 4 -14 92 -20 145 -16 152 9 15 33 6 48 -17z
m421 -110 c9 -29 8 -37 -6 -48 -26 -23 -39 -11 -30 27 4 19 6 35 3 35 -2 0 -1
5 2 10 11 18 20 11 31 -24z"/>
</g>
</svg>
